<svg width="44" height="44" viewBox="0 0 44 44" fill="none" xmlns="http://www.w3.org/2000/svg">
<g id="Group">
<g id="play">
<path id="Vector" d="M14.428 39.0134C12.9797 39.0134 11.6047 38.665 10.3947 37.9684C7.53467 36.3184 5.95801 32.9634 5.95801 28.545V15.4734C5.95801 11.0367 7.53467 7.70002 10.3947 6.05002C13.2547 4.40002 16.9397 4.71169 20.7897 6.93002L32.1013 13.4567C35.933 15.675 38.0597 18.7184 38.0597 22.0184C38.0597 25.3184 35.9513 28.3617 32.1013 30.58L20.7897 37.1067C18.5713 38.3717 16.408 39.0134 14.428 39.0134ZM14.428 7.73669C13.438 7.73669 12.558 7.95669 11.7697 8.41502C9.78967 9.55169 8.70801 12.0634 8.70801 15.4734V28.5267C8.70801 31.9367 9.78967 34.43 11.7697 35.585C13.7497 36.74 16.463 36.41 19.4147 34.705L30.7263 28.1784C33.678 26.4734 35.3097 24.2917 35.3097 22C35.3097 19.7084 33.678 17.5267 30.7263 15.8217L19.4147 9.29502C17.618 8.26835 15.9313 7.73669 14.428 7.73669Z" fill="white"/>
</g>
</g>
</svg>
