<svg  viewBox="0 0 33 18" fill="none" xmlns="http://www.w3.org/2000/svg">
<rect x="0.963867" y="0.977051" width="31.1478" height="16.6707" rx="2.63222" fill="white"/>
<path d="M14.7818 9.91797H5.13184V13.2551H14.7818V9.91797Z" fill="#84B740"/>
<path d="M14.7818 5.36426H5.13184V8.70435H14.7818V5.36426Z" fill="#259BD6"/>
<path d="M24.4315 12.5768L24.3886 12.5857C24.2396 12.6154 24.1851 12.6273 24.0762 12.6273C23.8241 12.6273 23.5261 12.4935 23.5261 11.863C23.5261 11.5388 23.5777 11.1075 24.0476 11.1075H24.0505C24.1307 11.1134 24.2224 11.1224 24.3943 11.1759L24.4315 11.1878V12.5768ZM24.5089 9.43298L24.4315 9.44785V10.6138L24.3628 10.5929L24.3427 10.587C24.2653 10.5632 24.0877 10.5097 23.9158 10.5097C22.976 10.5097 22.7783 11.2473 22.7783 11.8659C22.7783 12.7136 23.2367 13.2014 24.0361 13.2014C24.3742 13.2014 24.6235 13.1657 24.8756 13.0794C25.1077 13.0021 25.1908 12.892 25.1908 12.6571V9.31104C24.9673 9.35267 24.7352 9.39431 24.5089 9.43298Z" fill="#27292D"/>
<path d="M27.2253 12.5974L27.1852 12.6093L27.0419 12.648C26.9072 12.6837 26.7869 12.7045 26.6952 12.7045C26.4746 12.7045 26.3428 12.5915 26.3428 12.3982C26.3428 12.2732 26.3972 12.0621 26.7582 12.0621H27.2253V12.5974ZM26.8958 10.4946C26.6064 10.4946 26.3084 10.5482 25.9388 10.6671L25.6981 10.7415L25.7784 11.3066L26.0133 11.2263C26.2597 11.143 26.5663 11.0895 26.7955 11.0895C26.8986 11.0895 27.2138 11.0895 27.2138 11.4434V11.5981H26.7754C25.9761 11.5981 25.6064 11.8628 25.6064 12.4309C25.6064 12.9157 25.9474 13.2072 26.5204 13.2072C26.6981 13.2072 26.9445 13.1715 27.1565 13.1179L27.168 13.115L27.1794 13.1179L27.2511 13.1298C27.4745 13.1715 27.7066 13.2131 27.933 13.2577V11.4018C27.933 10.801 27.5834 10.4946 26.8958 10.4946Z" fill="#27292D"/>
<path d="M21.6579 12.5974L21.6178 12.6093L21.4745 12.648C21.3399 12.6837 21.2224 12.7045 21.1278 12.7045C20.9072 12.7045 20.7754 12.5915 20.7754 12.3982C20.7754 12.2732 20.8299 12.0621 21.188 12.0621H21.655L21.6579 12.5974ZM21.3313 10.4946C21.039 10.4946 20.7439 10.5482 20.3743 10.6671L20.1336 10.7415L20.2138 11.3066L20.4488 11.2263C20.6952 11.143 21.0018 11.0895 21.231 11.0895C21.3341 11.0895 21.6493 11.0895 21.6493 11.4434V11.5981H21.2109C20.4115 11.5981 20.0391 11.8628 20.0391 12.4309C20.0391 12.9157 20.38 13.2072 20.9559 13.2072C21.1336 13.2072 21.38 13.1715 21.592 13.1179L21.6035 13.115L21.6149 13.1179L21.6837 13.1298C21.91 13.1715 22.1392 13.2131 22.3656 13.2607V11.4048C22.3685 10.798 22.0189 10.4946 21.3313 10.4946Z" fill="#27292D"/>
<path d="M18.6412 10.5005C18.2773 10.5005 17.9764 10.6255 17.8647 10.679L17.836 10.6939L17.8103 10.673C17.6555 10.557 17.4292 10.4976 17.114 10.4976C16.8361 10.4976 16.5754 10.5392 16.2917 10.6255C16.0482 10.7028 15.9536 10.8247 15.9536 11.0537V13.1744H16.7158V11.2144L16.753 11.2025C16.9077 11.1489 16.9994 11.14 17.0882 11.14C17.3088 11.14 17.4206 11.2619 17.4206 11.4999V13.1774H18.1713V11.4672C18.1713 11.366 18.1512 11.3066 18.1483 11.2947L18.1226 11.2441L18.1741 11.2203C18.2887 11.1668 18.4148 11.14 18.5466 11.14C18.6985 11.14 18.879 11.2025 18.879 11.4999V13.1774H19.6268V11.4226C19.6268 10.8009 19.3059 10.5005 18.6412 10.5005Z" fill="#27292D"/>
<path d="M26.6634 7.54142C26.5516 7.54142 26.3654 7.52952 26.2193 7.49978L26.1763 7.49085V6.34576C26.1763 6.25059 26.1591 6.1911 26.1563 6.18218L26.1333 6.13459L26.182 6.11377C26.1935 6.10782 26.205 6.10485 26.2193 6.0989L26.2279 6.09295C26.2451 6.087 26.2623 6.08105 26.2795 6.07511C26.288 6.07213 26.2938 6.06916 26.2995 6.06916C26.4686 6.02157 26.6233 6.02752 26.692 6.02157H26.6949C27.1619 6.02157 27.2164 6.45284 27.2164 6.77703C27.2135 7.40757 26.9127 7.54142 26.6634 7.54142ZM26.6605 5.36426C26.6548 5.36426 26.6462 5.36426 26.6405 5.36426C26.2021 5.36426 25.7523 5.48918 25.5918 5.73307C25.5059 5.85204 25.4571 6.00075 25.4543 6.17623V7.35701C25.4543 7.45814 25.4342 7.4968 25.4314 7.50573L25.4056 7.55629H24.0217V6.73539H24.0188C24.0016 5.86988 23.5088 5.394 22.7954 5.394H22.7123H22.0992C22.0705 5.60517 22.0476 5.75389 22.0189 5.96506H22.7123C23.0762 5.96506 23.2681 6.28628 23.2681 6.78001V7.60685L23.2194 7.58008C23.2108 7.57711 23.1507 7.55629 23.0561 7.55629H21.8585C21.8356 7.71392 21.8069 7.91915 21.7754 8.12437H25.4571C25.5832 8.0976 25.7293 8.07381 25.8554 8.05299C26.0416 8.14817 26.3883 8.19873 26.6261 8.19873C27.4255 8.19873 27.9441 7.64254 27.9441 6.78595C27.9413 5.93829 27.4399 5.3821 26.6605 5.36426Z" fill="#27292D"/>
<path d="M20.2055 8.47236H20.2399C21.0393 8.47236 21.4118 8.19873 21.4118 7.52357C21.4118 7.03876 21.0708 6.65211 20.4978 6.65211H19.7614C19.5408 6.65211 19.409 6.52124 19.409 6.30115C19.409 6.15243 19.4635 5.96803 19.8245 5.96803H21.4347C21.4691 5.75091 21.4863 5.61409 21.5178 5.39697H19.8445C19.0652 5.39697 18.6727 5.73604 18.6727 6.30115C18.6727 6.86031 19.0136 7.15179 19.5867 7.15179H20.323C20.5436 7.15179 20.6754 7.33322 20.6754 7.52357C20.6754 7.64849 20.621 7.90725 20.2628 7.90725H20.1396L17.7816 7.9013H17.3518C16.9879 7.9013 16.7329 7.68715 16.7329 7.19045V6.84841C16.7329 6.33089 16.9306 6.00967 17.3518 6.00967H18.0509C18.0824 5.78957 18.1025 5.64978 18.1312 5.44159H17.2601H17.177C16.4636 5.44159 15.9708 5.93829 15.9536 6.8038V6.83651V7.19045C15.9708 8.05596 16.4636 8.46938 17.177 8.46938H17.2601H17.8733L19.1512 8.47236H19.9133H20.2055Z" fill="#27292D"/>
</svg>
