<svg width="64" height="40" viewBox="0 0 64 40" fill="none" xmlns="http://www.w3.org/2000/svg">
<g id="Group">
<path id="Vector" fill-rule="evenodd" clip-rule="evenodd" d="M59.2 0H3.2C1.6 0 0 1.6 0 3.2V35.2C0 38.4 1.6 40 4.8 40H59.2C62.4 40 64 38.4 64 35.2V4.8C64 1.6 62.4 0 59.2 0Z" fill="white"/>
<path id="Vector_2" fill-rule="evenodd" clip-rule="evenodd" d="M59.8184 20.2001C59.8212 29.4953 52.3684 37.0321 43.1724 37.0341C33.976 37.0365 26.52 29.5037 26.5176 20.2085V20.2001C26.5152 10.9053 33.968 3.36812 43.1636 3.36572C52.3596 3.36332 59.816 10.8965 59.8184 20.1917V20.2001Z" fill="#DFAC16"/>
<path id="Vector_3" fill-rule="evenodd" clip-rule="evenodd" d="M20.7252 3.37012C11.5836 3.42892 4.18164 10.9461 4.18164 20.2001C4.18164 29.4901 11.6412 37.0301 20.8324 37.0301C25.146 37.0301 29.078 35.3681 32.0368 32.6449L32.0356 32.6441H32.0392C32.6459 32.0855 33.2109 31.4832 33.7296 30.8421H30.318C29.8672 30.2916 29.4526 29.7124 29.0768 29.1081H34.96C35.3192 28.5276 35.6428 27.9258 35.9292 27.3061H28.1052C27.8399 26.7305 27.6075 26.1402 27.4092 25.5381H36.626C37.1953 23.8161 37.4846 22.0138 37.4828 20.2001C37.4835 18.9886 37.3549 17.7804 37.0992 16.5961H26.9208C27.0468 15.9985 27.206 15.4081 27.3956 14.8281H36.6156C36.4111 14.2142 36.1715 13.6126 35.898 13.0261H28.104C28.3857 12.4176 28.7048 11.8271 29.0596 11.2581H34.9384C34.5478 10.6298 34.1162 10.0278 33.6464 9.45612H30.3684C30.8809 8.84752 31.4393 8.27919 32.0388 7.75612C29.08 5.03212 25.1472 3.37012 20.832 3.37012H20.7252Z" fill="#BF3126"/>
<path id="Vector_4" fill-rule="evenodd" clip-rule="evenodd" d="M26.8194 24.4847L27.041 22.9615C26.9198 22.9615 26.7418 23.0143 26.5842 23.0143C25.967 23.0143 25.899 22.6823 25.9386 22.4371L26.437 19.3291H27.375L27.6014 17.6447H26.717L26.897 16.5967H25.1242C25.085 16.6367 24.0778 22.4895 24.0778 23.2023C24.0778 24.2571 24.6638 24.7271 25.4902 24.7195C26.1374 24.7143 26.6414 24.5331 26.8194 24.4847ZM27.381 21.5807C27.381 24.1131 29.0346 24.7147 30.4434 24.7147C31.7438 24.7147 32.3162 24.4211 32.3162 24.4211L32.6282 22.6931C32.6282 22.6931 31.639 23.1331 30.7458 23.1331C28.8418 23.1331 29.1754 21.6987 29.1754 21.6987H32.7782C32.7782 21.6987 33.011 20.5375 33.011 20.0643C33.011 18.8835 32.4294 17.4451 30.483 17.4451C28.7006 17.4451 27.381 19.3863 27.381 21.5807ZM30.4898 19.0499C31.4902 19.0499 31.3058 20.1859 31.3058 20.2779H29.3378C29.3378 20.1607 29.5234 19.0499 30.4898 19.0499ZM41.7162 24.4839L42.0334 22.5307C42.0334 22.5307 41.1634 22.9715 40.5666 22.9715C39.309 22.9715 38.8046 22.0007 38.8046 20.9579C38.8046 18.8427 39.8866 17.6787 41.091 17.6787C41.9946 17.6787 42.7194 18.1915 42.7194 18.1915L43.009 16.2935C43.009 16.2935 41.9338 15.8535 41.0122 15.8535C38.9654 15.8535 36.9746 17.6483 36.9746 21.0187C36.9746 23.2535 38.0498 24.7295 40.1654 24.7295C40.7634 24.7295 41.7162 24.4839 41.7162 24.4839ZM17.0686 17.4727C15.853 17.4727 14.921 17.8679 14.921 17.8679L14.6638 19.4115C14.6638 19.4115 15.433 19.0955 16.5958 19.0955C17.2558 19.0955 17.7386 19.1707 17.7386 19.7127C17.7386 20.0423 17.6794 20.1639 17.6794 20.1639C17.6794 20.1639 17.159 20.1199 16.9178 20.1199C15.3846 20.1199 13.7738 20.7811 13.7738 22.7751C13.7738 24.3463 14.8306 24.7071 15.4854 24.7071C16.7362 24.7071 17.2754 23.8867 17.3042 23.8839L17.2458 24.5687H18.8066L19.503 19.6339C19.503 17.5403 17.6962 17.4727 17.0686 17.4727ZM17.4486 21.4911C17.4822 21.7923 17.2614 23.2055 16.1942 23.2055C15.6434 23.2055 15.5002 22.7803 15.5002 22.5287C15.5002 22.0383 15.7642 21.4495 17.063 21.4495C17.365 21.4499 17.3974 21.4827 17.4486 21.4911ZM21.1622 24.6707C21.5618 24.6707 23.8446 24.7735 23.8446 22.3923C23.8446 20.1663 21.7314 20.6063 21.7314 19.7123C21.7314 19.2667 22.0754 19.1267 22.7054 19.1267C22.9554 19.1267 23.9166 19.2067 23.9166 19.2067L24.1406 17.6247C24.1406 17.6247 23.5182 17.4839 22.5046 17.4839C21.1934 17.4839 19.8622 18.0131 19.8622 19.8239C19.8622 21.8751 22.0818 21.6695 22.0818 22.5335C22.0818 23.1103 21.4618 23.1575 20.9838 23.1575C20.1566 23.1575 19.4118 22.8707 19.4094 22.8843L19.173 24.4503C19.2158 24.4639 19.675 24.6707 21.1622 24.6707ZM56.401 16.0531L56.0186 18.4515C56.0186 18.4515 55.3514 17.5195 54.3066 17.5195C52.6826 17.5195 51.3286 19.4995 51.3286 21.7739C51.3286 23.2419 52.0506 24.6807 53.527 24.6807C54.589 24.6807 55.1774 23.9327 55.1774 23.9327L55.0994 24.5715H56.8238L58.1782 16.0503L56.401 16.0531ZM55.5778 20.7291C55.5778 21.6759 55.1142 22.9403 54.153 22.9403C53.515 22.9403 53.2162 22.3987 53.2162 21.5491C53.2162 20.1599 53.8334 19.2435 54.6122 19.2435C55.2506 19.2435 55.5778 19.6859 55.5778 20.7291ZM7.46937 24.5791L8.54857 18.1455L8.70697 24.5791H9.92857L12.207 18.1455L11.1978 24.5791H13.0126L14.4106 16.0463H11.6034L9.85537 21.2815L9.76457 16.0463H7.17777L5.75977 24.5791H7.46937ZM34.7838 24.5907C35.2998 21.6247 35.3958 19.2163 36.627 19.6571C36.843 18.5091 37.051 18.0651 37.2858 17.5791C37.2858 17.5791 37.1758 17.5555 36.9442 17.5555C36.1502 17.5555 35.5618 18.6519 35.5618 18.6519L35.7202 17.6451H34.0694L32.9634 24.5907H34.7838ZM45.807 17.4727C44.591 17.4727 43.659 17.8679 43.659 17.8679L43.4022 19.4115C43.4022 19.4115 44.1714 19.0955 45.3342 19.0955C45.9942 19.0955 46.4766 19.1707 46.4766 19.7127C46.4766 20.0423 46.4178 20.1639 46.4178 20.1639C46.4178 20.1639 45.8974 20.1199 45.6558 20.1199C44.123 20.1199 42.5122 20.7811 42.5122 22.7751C42.5122 24.3463 43.5686 24.7071 44.2234 24.7071C45.4742 24.7071 46.0134 23.8867 46.0422 23.8839L45.9842 24.5687H47.545L48.241 19.6339C48.2414 17.5403 46.4346 17.4727 45.807 17.4727ZM46.187 21.4911C46.221 21.7923 46.0002 23.2055 44.9322 23.2055C44.3818 23.2055 44.239 22.7803 44.239 22.5287C44.239 22.0383 44.5026 21.4495 45.8014 21.4495C46.1034 21.4499 46.1358 21.4827 46.187 21.4911ZM49.6682 24.5907C50.1842 21.6247 50.2802 19.2163 51.511 19.6571C51.727 18.5091 51.935 18.0651 52.1702 17.5791C52.1702 17.5791 52.0598 17.5555 51.8286 17.5555C51.0346 17.5555 50.4462 18.6519 50.4462 18.6519L50.6042 17.6451H48.9538L47.8478 24.5907H49.6682Z" fill="white"/>
</g>
</svg>
