<svg  viewBox="0 0 29 18" fill="none" xmlns="http://www.w3.org/2000/svg">
<rect x="0.279785" y="0.977051" width="27.9848" height="16.6707" rx="2.50061" fill="white"/>
<path d="M8.16094 6.21941C8.39228 5.93005 8.54924 5.54155 8.50787 5.14453C8.16923 5.16138 7.75598 5.36797 7.51673 5.65753C7.30189 5.90552 7.11177 6.31029 7.16135 6.69065C7.54144 6.72362 7.92127 6.50065 8.16094 6.21941ZM8.50353 6.76491C7.95147 6.73202 7.48207 7.07823 7.21842 7.07823C6.95465 7.07823 6.55092 6.78149 6.11425 6.78948C5.54592 6.79784 5.01857 7.11918 4.73016 7.63025C4.13696 8.65267 4.57362 10.1693 5.15048 11.002C5.43059 11.4139 5.76824 11.8675 6.21308 11.8512C6.63339 11.8347 6.79814 11.579 7.30903 11.579C7.81957 11.579 7.96797 11.8512 8.41289 11.843C8.8743 11.8347 9.16275 11.4308 9.44287 11.0184C9.76424 10.5488 9.8958 10.0954 9.90405 10.0705C9.89576 10.0622 9.01434 9.72406 9.00617 8.71016C8.99784 7.86121 9.69819 7.45736 9.73116 7.43234C9.33572 6.84746 8.71776 6.78149 8.50353 6.76491ZM13.3105 5.61596C14.5104 5.61596 15.346 6.44308 15.346 7.64729C15.346 8.85581 14.4932 9.68722 13.2804 9.68722H11.9519V11.8H10.9921V5.61596H13.3105ZM11.9519 8.88152H13.0532C13.889 8.88152 14.3646 8.43158 14.3646 7.65159C14.3646 6.87168 13.889 6.42596 13.0575 6.42596H11.9519V8.88152ZM15.5968 10.5186C15.5968 9.73005 16.201 9.2458 17.2725 9.18582L18.5066 9.11298V8.76589C18.5066 8.26448 18.1681 7.96448 17.6025 7.96448C17.0667 7.96448 16.7324 8.22158 16.6511 8.62447H15.7768C15.8283 7.81017 16.5224 7.21021 17.6367 7.21021C18.7295 7.21021 19.428 7.78875 19.428 8.69297V11.8H18.5409V11.0586H18.5195C18.2581 11.56 17.6881 11.8771 17.0968 11.8771C16.2139 11.8771 15.5968 11.3285 15.5968 10.5186ZM18.5066 10.1115V9.75584L17.3966 9.82438C16.8438 9.86299 16.531 10.1073 16.531 10.493C16.531 10.8872 16.8567 11.1443 17.3538 11.1443C18.0009 11.1443 18.5066 10.6986 18.5066 10.1115ZM20.2655 13.4585V12.7085C20.334 12.7256 20.4882 12.7256 20.5654 12.7256C20.9939 12.7256 21.2254 12.5457 21.3667 12.0828C21.3667 12.0742 21.4482 11.8085 21.4482 11.8042L19.8198 7.29161H20.8225L21.9626 10.96H21.9796L23.1197 7.29161H24.0967L22.408 12.0356C22.0225 13.1285 21.5768 13.4799 20.6425 13.4799C20.5654 13.4799 20.3339 13.4713 20.2655 13.4585Z" fill="black"/>
</svg>
