<svg  viewBox="0 0 37 18" fill="none" xmlns="http://www.w3.org/2000/svg">
<rect x="0.432129" y="0.977051" width="36.5681" height="16.6707" rx="2.50061" fill="white"/>
<g clip-path="url(#clip0_7838_2400)">
<path d="M7.34936 13.4769C8.09525 13.5039 8.82276 13.2426 9.38021 12.7474C9.56101 12.57 9.70389 12.3578 9.80023 12.1238C9.89657 11.8897 9.94435 11.6387 9.94072 11.3857C9.94295 11.1498 9.89816 10.9158 9.80889 10.6973C9.71965 10.4788 9.58773 10.2802 9.42084 10.1131C9.02582 9.74197 8.52734 9.49892 7.99113 9.41606L6.98788 9.22155C6.58171 9.14048 6.33801 8.93379 6.33801 8.65012C6.33801 8.2732 6.70357 8.01383 7.28844 8.01383C7.61489 8.00119 7.93314 8.1177 8.17389 8.33805C8.30906 8.48505 8.39435 8.67082 8.41761 8.86896L9.86355 8.54474C9.81744 8.13367 9.62761 7.75198 9.32743 7.46672C8.7759 6.95829 8.04717 6.68489 7.29658 6.70482C6.59707 6.68287 5.91465 6.92285 5.38352 7.37756C5.18984 7.55619 5.03563 7.77315 4.93072 8.01458C4.82582 8.25604 4.77253 8.51664 4.77426 8.7798C4.76704 8.99964 4.80472 9.21861 4.88502 9.42348C4.96532 9.62831 5.08656 9.8147 5.24136 9.9713C5.62209 10.3232 6.09304 10.5631 6.60202 10.6643L7.58902 10.8993C8.08454 11.0128 8.30387 11.1952 8.30387 11.5194C8.30387 11.9247 7.94239 12.1557 7.3453 12.1557C7.16115 12.1646 6.9771 12.1358 6.80454 12.071C6.63199 12.0061 6.47459 11.9067 6.34207 11.7788C6.18374 11.6197 6.09098 11.4071 6.08213 11.183L4.59961 11.5073C4.64498 11.9424 4.8436 12.3474 5.16012 12.6501C5.45164 12.924 5.7952 13.1368 6.17051 13.276C6.54582 13.4153 6.94528 13.478 7.3453 13.4606L7.34936 13.4769ZM18.3119 13.4606C18.718 13.4719 19.1223 13.4029 19.5015 13.2575C19.8807 13.1121 20.2274 12.8933 20.5214 12.6136C20.8976 12.2569 21.1687 11.8042 21.3053 11.3046L19.7822 10.798C19.7111 11.0563 19.5706 11.2903 19.376 11.4748C19.0898 11.7438 18.709 11.8894 18.3159 11.8801C18.1017 11.8824 17.8892 11.8424 17.6905 11.7624C17.4918 11.6824 17.311 11.5641 17.1584 11.414C16.8384 11.0482 16.6712 10.5739 16.6913 10.0888C16.6692 9.59758 16.8413 9.11735 17.1705 8.75143C17.4778 8.4559 17.8892 8.29285 18.3159 8.29753C18.5059 8.29159 18.695 8.32447 18.8717 8.39417C19.0485 8.46386 19.209 8.56889 19.3435 8.70279C19.5335 8.89574 19.673 9.13236 19.7497 9.39175L21.2972 8.87302C21.1678 8.39024 20.9176 7.9482 20.5702 7.5883C20.2666 7.30071 19.909 7.07599 19.5179 6.92713C19.1267 6.77827 18.71 6.70822 18.2916 6.72103C17.8565 6.71587 17.4248 6.79665 17.0212 6.95872C16.6175 7.12078 16.2501 7.36092 15.9398 7.6653C15.3219 8.32633 14.9803 9.19783 14.9849 10.1017C14.9894 11.0057 15.3397 11.8737 15.9642 12.5285C16.5936 13.1395 17.4379 13.48 18.3159 13.4769L18.3119 13.4606ZM13.0642 13.4769C13.5515 13.4966 14.0317 13.3541 14.4289 13.0716V11.6856C14.1733 11.8603 13.8694 11.951 13.5597 11.945C13.4429 11.9664 13.3227 11.959 13.2095 11.9235C13.0962 11.8879 12.9935 11.8252 12.9101 11.7408C12.8268 11.6564 12.7654 11.553 12.7314 11.4395C12.6974 11.3261 12.6917 11.206 12.7149 11.0898V5.14453H11.0049V6.89935H14.437V8.55689H11.0049V11.5032C10.9815 12.0229 11.1639 12.5309 11.5126 12.9176C11.7222 13.1098 11.968 13.2583 12.2359 13.3543C12.5037 13.4503 12.7881 13.492 13.0723 13.4769" fill="#4F008C"/>
<path d="M22.9761 11.2971V6.90097H23.7159V7.24866C23.8332 7.10563 23.9818 6.99186 24.1502 6.91628C24.3186 6.84069 24.5021 6.80536 24.6864 6.81304C25.5376 6.81304 26.1502 7.49645 26.1502 8.47559C26.1502 9.45473 25.5575 10.1581 24.6864 10.1581C24.5015 10.1648 24.3176 10.1283 24.1491 10.0513C23.9807 9.97429 23.8324 9.85899 23.7159 9.71449V11.3131L22.9761 11.2971ZM23.7159 8.09991V8.89922C23.7854 9.06657 23.9025 9.20964 24.0525 9.31058C24.2024 9.41149 24.3786 9.46581 24.5591 9.46672C25.0524 9.46672 25.3785 9.09504 25.3785 8.49557C25.3785 7.8961 25.0524 7.53242 24.5591 7.53242C24.3784 7.52979 24.2011 7.58221 24.0506 7.6828C23.9 7.78339 23.7834 7.92742 23.7159 8.09593" fill="#03BB86"/>
<path d="M26.6523 9.0165C26.6409 8.77684 26.7315 8.54265 26.9044 8.36481C27.0774 8.18697 27.3187 8.07985 27.576 8.0667L28.9027 7.91034V7.754C28.9087 7.71677 28.9055 7.67877 28.8932 7.64289C28.881 7.60701 28.8601 7.57422 28.8321 7.54705C28.8041 7.51987 28.7698 7.49903 28.7318 7.48612C28.6938 7.4732 28.6532 7.46857 28.613 7.47258H26.9336V6.81201H28.613C29.2847 6.81201 29.6584 7.11689 29.6584 7.6641V9.89596H28.9027V9.50509C28.7755 9.66104 28.6089 9.78542 28.4178 9.86724C28.2267 9.94904 28.0169 9.98574 27.8069 9.97413C27.6611 9.98838 27.5137 9.97391 27.3743 9.93167C27.2348 9.88943 27.1065 9.82038 26.9976 9.72896C26.8887 9.63754 26.8017 9.52582 26.7422 9.40106C26.6828 9.27629 26.6521 9.14129 26.6523 9.00478V9.0165ZM28 9.39565C28.1878 9.39939 28.3728 9.35274 28.5329 9.26126C28.6929 9.16976 28.8213 9.03731 28.9027 8.87969V8.48884L27.8909 8.62173C27.6096 8.6569 27.471 8.7937 27.471 9.0126C27.471 9.23147 27.6684 9.40345 28.0168 9.40345" fill="#03BB86"/>
<path d="M30.2871 10.6156H30.7824C30.8591 10.6242 30.9359 10.5997 30.9973 10.5472C31.0588 10.4947 31.1004 10.418 31.1138 10.3325L31.2048 10.0494L30.1597 6.81201H30.8661L31.5142 9.0646L32.137 6.81201H32.8326L31.6855 10.5294C31.529 11.0423 31.3213 11.3131 30.8188 11.3131H30.2871V10.6156Z" fill="#03BB86"/>
</g>
<defs>
<clipPath id="clip0_7838_2400">
<rect width="28.2327" height="8.33536" fill="white" transform="translate(4.59961 5.14453)"/>
</clipPath>
</defs>
</svg>
