<svg viewBox="0 0 30 18" fill="none" xmlns="http://www.w3.org/2000/svg">
<rect x="0.84082" y="0.977051" width="28.9555" height="16.6708" rx="2.50061" fill="white"/>
<path d="M12.5684 12.2743L13.6157 6.38281H15.2522L14.2376 12.2743H12.5684Z" fill="#3C58BF"/>
<path d="M12.5684 12.2743L13.9103 6.38281H15.2522L14.2376 12.2743H12.5684Z" fill="#293688"/>
<path d="M20.163 6.44837C19.8357 6.31744 19.312 6.18652 18.6574 6.18652C17.0209 6.18652 15.8426 7.00478 15.8426 8.18307C15.8426 9.06679 16.6609 9.52501 17.3155 9.81958C17.9701 10.1142 18.1665 10.3105 18.1665 10.5724C18.1665 10.9651 17.6428 11.1615 17.1845 11.1615C16.5299 11.1615 16.1699 11.0633 15.6135 10.8342L15.3844 10.736L15.1553 12.078C15.548 12.2416 16.2681 12.4053 17.0209 12.4053C18.7556 12.4053 19.9012 11.587 19.9012 10.3433C19.9012 9.65593 19.4757 9.13225 18.4938 8.70675C17.9046 8.41218 17.5446 8.24853 17.5446 7.95396C17.5446 7.69212 17.8392 7.43027 18.4938 7.43027C19.0502 7.43027 19.4429 7.52846 19.7375 7.65938L19.9012 7.72485L20.163 6.44837Z" fill="#3C58BF"/>
<path d="M20.163 6.44837C19.8357 6.31744 19.312 6.18652 18.6574 6.18652C17.0209 6.18652 16.1372 7.00478 16.1372 8.18307C16.1372 9.06679 16.6609 9.52501 17.3155 9.81958C17.9701 10.1142 18.1665 10.3105 18.1665 10.5724C18.1665 10.9651 17.6428 11.1615 17.1845 11.1615C16.5299 11.1615 16.1699 11.0633 15.6135 10.8342L15.3844 10.736L15.1553 12.078C15.548 12.2416 16.2681 12.4053 17.0209 12.4053C18.7556 12.4053 19.9012 11.587 19.9012 10.3433C19.9012 9.65593 19.4757 9.13225 18.4938 8.70675C17.9046 8.41218 17.5446 8.24853 17.5446 7.95396C17.5446 7.69212 17.8392 7.43027 18.4938 7.43027C19.0502 7.43027 19.4429 7.52846 19.7375 7.65938L19.9012 7.72485L20.163 6.44837Z" fill="#293688"/>
<path d="M22.9776 6.38281C22.5849 6.38281 22.2903 6.41554 22.1266 6.80831L19.6719 12.2743H21.4393L21.7666 11.2924H23.8613L24.0577 12.2743H25.6288L24.2541 6.38281H22.9776ZM22.2248 10.3104C22.323 10.0159 22.8794 8.57574 22.8794 8.57574C22.8794 8.57574 23.0104 8.21571 23.1086 7.9866L23.2067 8.54301C23.2067 8.54301 23.534 10.0159 23.5995 10.3432H22.2248V10.3104Z" fill="#3C58BF"/>
<path d="M23.3704 6.38281C22.9776 6.38281 22.6831 6.41554 22.5194 6.80831L19.6719 12.2743H21.4393L21.7666 11.2924H23.8613L24.0577 12.2743H25.6288L24.2541 6.38281H23.3704ZM22.2248 10.3104C22.3558 9.98314 22.8794 8.57574 22.8794 8.57574C22.8794 8.57574 23.0104 8.21571 23.1086 7.9866L23.2067 8.54301C23.2067 8.54301 23.534 10.0159 23.5995 10.3432H22.2248V10.3104Z" fill="#293688"/>
<path d="M9.55828 10.5068L9.39463 9.65582C9.10006 8.67391 8.15088 7.59382 7.10352 7.07013L8.57638 12.307H10.3438L12.995 6.41553H11.2275L9.55828 10.5068Z" fill="#3C58BF"/>
<path d="M9.55828 10.5068L9.39463 9.65582C9.10006 8.67391 8.15088 7.59382 7.10352 7.07013L8.57638 12.307H10.3438L12.995 6.41553H11.5548L9.55828 10.5068Z" fill="#293688"/>
<path d="M5.0083 6.38281L5.30287 6.44827C7.39761 6.93923 8.83774 8.18298 9.39415 9.65584L8.80501 6.87377C8.70682 6.481 8.41225 6.38281 8.05221 6.38281H5.0083Z" fill="#FFBC00"/>
<path d="M5.0083 6.38281C7.10304 6.87377 8.83774 8.15025 9.39415 9.62311L8.83774 7.29926C8.73955 6.9065 8.41225 6.67739 8.05221 6.67739L5.0083 6.38281Z" fill="#F7981D"/>
<path d="M5.0083 6.38281C7.10304 6.87377 8.83774 8.15025 9.39415 9.62311L9.00139 8.34663C8.9032 7.95386 8.77228 7.5611 8.31406 7.39745L5.0083 6.38281Z" fill="#ED7C00"/>
<path d="M11.1938 10.3106L10.081 9.19779L9.55729 10.4415L9.42637 9.62329C9.1318 8.64138 8.18262 7.56128 7.13525 7.0376L8.60812 12.2744H10.3755L11.1938 10.3106ZM14.2377 12.2744L12.8303 10.8343L12.5685 12.2744H14.2377ZM18.0017 10.2452C18.1326 10.3761 18.1981 10.4743 18.1653 10.6052C18.1653 10.998 17.6417 11.1943 17.1834 11.1943C16.5288 11.1943 16.1688 11.0961 15.6124 10.867L15.3833 10.7688L15.1542 12.1108C15.5469 12.2744 16.267 12.4381 17.0198 12.4381C18.0672 12.4381 18.9181 12.1435 19.4091 11.6198L18.0017 10.2452ZM19.9001 12.2744H21.4384L21.7657 11.2925H23.8604L24.0568 12.2744H25.6278L25.0714 9.88513L23.1076 7.98678L23.2058 8.51046C23.2058 8.51046 23.5331 9.98332 23.5986 10.3106H22.2239C22.3548 9.98332 22.8785 8.57592 22.8785 8.57592C22.8785 8.57592 23.0094 8.21589 23.1076 7.98678" fill="#051244"/>
</svg>
